<svg xmlns="http://www.w3.org/2000/svg" width="34" height="34" fill="none" viewBox="0 0 34 34">
    <path fill="#222" d="M29.772 17.82h-.764c-.653-1.868-1.939-3.449-3.635-4.47v-2.973c0-.123-.049-.241-.136-.329-.087-.087-.205-.136-.329-.136-.775 0-1.537.198-2.215.574.205-.807.237-1.649.092-2.47-.144-.82-.462-1.6-.931-2.289-.47-.688-1.08-1.269-1.79-1.703-.712-.434-1.507-.713-2.334-.816-.826-.104-1.665-.03-2.462.215-.796.246-1.53.658-2.155 1.21-.625.55-1.125 1.228-1.468 1.988-.342.76-.52 1.583-.52 2.416 0 1.26.405 2.489 1.157 3.501-1.44.44-2.732 1.262-3.742 2.378-1.01 1.117-1.699 2.485-1.994 3.96-.032-.03-.063-.062-.098-.093.029-.597-.154-1.186-.516-1.662-.281-.406-.659-.735-1.098-.96-.44-.223-.928-.335-1.422-.324-.12.012-.232.072-.31.166-.077.093-.114.213-.104.335.01.12.067.233.159.313.092.08.212.12.333.112.336.004.665.089.96.248.296.16.549.388.737.666.14.184.24.395.296.62-.179-.031-.36-.032-.54-.005-.871.133-1.157.708-1.137 1.16.013.275.126.534.316.731.191.197.447.318.72.34l.08.002c.247-.007.487-.077.699-.204.211-.127.386-.307.508-.521.096.122.182.252.257.388-.005.122-.007.244-.007.367.002 1.334.32 2.65.931 3.836.61 1.187 1.494 2.212 2.578 2.99.497.364.9.841 1.175 1.392.276.55.417 1.159.412 1.774 0 .124.049.242.136.33.087.086.206.135.329.135h4.258c.123 0 .241-.049.329-.136.087-.087.136-.205.136-.329V28.95h2.518v1.598c0 .124.05.242.136.33.088.086.206.135.33.135h4.256c.124 0 .242-.05.33-.139.087-.088.135-.207.135-.33.007-.631.162-1.252.453-1.813.29-.56.707-1.045 1.218-1.415 1.374-1.012 2.409-2.415 2.969-4.026h.764c.329 0 .644-.13.876-.363.233-.232.363-.547.364-.876v-2.99c0-.329-.131-.644-.364-.876-.232-.232-.547-.363-.876-.363zM5.376 19.248c-.038.098-.103.182-.187.244-.085.061-.185.097-.29.104-.043-.009-.083-.031-.112-.064-.03-.033-.048-.075-.052-.12-.006-.139.289-.19.348-.2.036-.005.072-.008.108-.008.066 0 .132.01.195.027l-.01.017zM17 4.091c.896.001 1.774.245 2.542.706.768.461 1.396 1.122 1.818 1.912.423.79.623 1.679.58 2.573-.044.895-.329 1.76-.825 2.506-.13.15-.25.308-.361.472-.495.575-1.116 1.028-1.815 1.324-.575-.11-1.158-.172-1.743-.186.08-.037.149-.096.196-.17.048-.075.074-.162.074-.25v-.624c.415-.103.784-.342 1.048-.68.264-.337.407-.753.407-1.181 0-.428-.143-.844-.407-1.182-.264-.337-.633-.576-1.048-.68V6.71c.16.083.293.208.387.362.093.154.143.33.144.51 0 .123.049.241.136.329.087.087.206.136.329.136.123 0 .241-.05.329-.136.087-.088.136-.206.136-.329-.001-.429-.145-.845-.41-1.183-.265-.337-.635-.577-1.051-.68v-.621c0-.123-.05-.242-.136-.329-.088-.087-.206-.136-.33-.136-.122 0-.24.049-.328.136-.087.087-.136.206-.136.329v.624c-.415.103-.783.343-1.046.68s-.406.752-.406 1.18c0 .427.143.843.406 1.18.263.337.631.576 1.046.68v1.922c-.159-.084-.291-.209-.384-.362-.093-.153-.142-.33-.143-.508 0-.123-.049-.242-.136-.329-.087-.087-.205-.136-.329-.136-.123 0-.241.049-.329.136-.087.087-.136.206-.136.329.001.428.145.843.408 1.18.264.338.633.577 1.048.681v.623c0 .087.025.172.072.246.046.074.113.133.192.17-.605.004-1.209.058-1.804.162-1.037-.46-1.884-1.26-2.4-2.27s-.669-2.166-.434-3.275c.235-1.109.844-2.103 1.725-2.817.881-.713 1.98-1.102 3.114-1.102zm.991 6.402c0 .179-.05.354-.142.508-.093.153-.226.278-.384.362v-1.74c.158.084.29.209.384.362.092.153.142.329.142.508zm-1.456-2.046c-.157-.083-.289-.208-.38-.361-.092-.153-.14-.328-.14-.506s.048-.353.14-.506c.091-.153.223-.278.38-.362v1.735zM30.082 22.05c0 .082-.033.16-.09.219-.059.058-.137.09-.22.09H28.67c-.1 0-.198.033-.278.093-.08.06-.14.144-.168.24-.47 1.553-1.43 2.912-2.736 3.874-.565.412-1.037.937-1.387 1.543-.349.606-.567 1.278-.64 1.973h-3.35v-1.598c0-.123-.049-.241-.136-.328-.087-.087-.206-.136-.329-.136h-3.448c-.123 0-.242.049-.329.136-.087.087-.136.205-.136.328v1.598h-3.35c-.059-.682-.264-1.344-.601-1.94-.337-.597-.798-1.114-1.352-1.517-1.16-.83-2.057-1.974-2.587-3.297-.53-1.324-.67-2.771-.402-4.172.267-1.4.93-2.694 1.91-3.73.98-1.035 2.235-1.769 3.618-2.113.226.212.467.405.722.578-.523.173-1.014.431-1.453.765-.047.038-.087.085-.117.139-.029.053-.048.112-.054.173-.007.06-.002.122.015.18.017.059.045.114.083.161.077.097.19.159.312.172.06.007.122.002.18-.015.06-.017.114-.045.162-.083.819-.655 2.377-1.06 4.066-1.06s3.246.405 4.064 1.059c.047.038.102.066.16.083.06.017.121.022.182.015.06-.006.119-.025.172-.054.054-.03.101-.07.14-.117.037-.048.066-.103.082-.162.017-.058.023-.12.016-.18-.007-.06-.026-.12-.055-.173-.03-.053-.07-.1-.117-.139-.395-.302-.834-.541-1.302-.71.41-.266.785-.583 1.116-.944.051-.036.094-.083.127-.137l.028-.043c.12-.143.237-.292.343-.445.657-.8 1.582-1.334 2.603-1.504v2.748c0 .083.022.165.064.236.042.071.102.13.175.17 1.705.95 2.974 2.526 3.541 4.393.029.096.087.18.168.24.08.06.177.092.277.092h1.103c.083 0 .161.033.22.091.057.058.09.137.09.219v2.989z"/>
    <path fill="#222" d="M25.331 17.574c-.06 0-.121.012-.178.035-.056.024-.107.058-.15.101-.044.043-.078.095-.101.151-.024.056-.036.117-.036.178 0 .165-.065.324-.182.44-.117.117-.275.183-.44.183-.165 0-.324-.066-.44-.183-.117-.116-.183-.275-.183-.44 0-.123-.049-.242-.136-.329-.087-.087-.206-.136-.329-.136-.123 0-.241.05-.328.136-.088.087-.137.206-.137.33 0 .41.164.806.455 1.097.291.29.686.454 1.098.454.411 0 .806-.163 1.097-.454.291-.291.455-.686.455-1.098 0-.061-.012-.122-.035-.178-.024-.056-.058-.108-.101-.15-.043-.044-.095-.078-.15-.101-.057-.024-.118-.036-.179-.036z"/>
</svg>
