<svg width="30" height="30" viewBox="0 0 30 30" fill="none" xmlns="http://www.w3.org/2000/svg">
<g clip-path="url(#clip0)">
<path d="M13.8419 20.348C14.071 20.1189 14.071 19.7481 13.8419 19.519C13.6126 19.2906 13.2411 19.2906 13.0115 19.519C12.7826 19.7481 12.7826 20.1189 13.0115 20.348C13.2411 20.5764 13.6126 20.5764 13.8419 20.348Z" fill="#222222"/>
<path d="M11.0664 6.44348C11.0664 9.99642 13.9626 12.8872 17.5225 12.8872C21.0824 12.8872 23.9786 9.99642 23.9786 6.44348C23.9786 2.89055 21.0824 0 17.5225 0C13.9626 0 11.0664 2.89055 11.0664 6.44348V6.44348ZM22.8049 6.44348C22.8049 9.35051 20.4352 11.7156 17.5225 11.7156C14.6098 11.7156 12.2401 9.35051 12.2401 6.44348C12.2401 3.53668 14.6098 1.17165 17.5225 1.17165C20.4352 1.17165 22.8049 3.53668 22.8049 6.44348Z" fill="#222222"/>
<path d="M6.7916 29.8256C7.01909 30.0545 7.38946 30.057 7.61994 29.8304L10.4655 27.0326C10.9489 26.5501 11.0959 25.8358 10.8833 25.2148L11.4954 24.6257C11.8249 24.308 12.2588 24.1329 12.7175 24.1329H20.52C21.9042 24.1329 23.2125 23.6023 24.2044 22.639C24.2452 22.5994 23.8945 23.0116 29.5273 16.2925C30.3628 15.306 30.2378 13.8247 29.2485 12.99C28.2653 12.163 26.7926 12.2818 25.9548 13.2514L22.4915 16.8041C22.0542 16.2669 21.3873 15.932 20.6667 15.932H14.1219C13.1906 15.5432 12.2024 15.3463 11.1828 15.3463C8.35654 15.3463 5.88873 16.6491 4.56435 19.0917C4.00639 18.9862 3.41793 19.1547 2.99459 19.5772L0.202502 22.3721C-0.0254514 22.6003 -0.02591 22.9695 0.201585 23.1983L6.7916 29.8256ZM11.1826 16.5177C12.0815 16.5177 12.9507 16.6983 13.7664 17.0545C13.8407 17.087 13.9208 17.1037 14.0017 17.1037H20.6667C21.3031 17.1037 21.8407 17.6216 21.8407 18.2751C21.8407 18.9212 21.3141 19.4467 20.6667 19.4467H15.8781C15.5541 19.4467 15.2912 19.709 15.2912 20.0324C15.2912 20.3561 15.5541 20.6182 15.8781 20.6182H20.6667C21.9613 20.6182 23.0144 19.5671 23.0144 18.2751C23.0144 18.1721 23.007 18.07 22.9937 17.9688C26.344 14.5317 26.8164 14.0488 26.8366 14.0248C27.2549 13.532 27.9975 13.4695 28.4915 13.8851C28.9859 14.3024 29.0485 15.043 28.6291 15.5386L23.3648 21.8196C22.5961 22.5561 21.5868 22.9615 20.52 22.9615H12.7175C11.9529 22.9615 11.2291 23.2533 10.6801 23.7827L10.1813 24.2631L5.58326 19.6742C6.6579 17.6621 8.6744 16.5177 11.1826 16.5177V16.5177ZM3.82522 20.4051C4.01878 20.2119 4.31599 20.1771 4.55197 20.3227C4.65356 20.3845 4.36185 20.1194 9.63552 25.3755C9.87012 25.6096 9.85751 25.9827 9.63873 26.201L7.21288 28.5862L1.44593 22.7866L3.82522 20.4051Z" fill="#222222"/>
<path d="M16.8169 2.92969V3.6161C16.1338 3.8578 15.643 4.50897 15.643 5.27275C15.643 6.24161 16.4328 7.03011 17.4038 7.03011C17.7274 7.03011 17.9906 7.29286 17.9906 7.61582C17.9906 7.93877 17.7274 8.20153 17.4038 8.20153C17.1531 8.20153 16.8823 8.04428 16.6417 7.75841C16.433 7.51076 16.0629 7.47895 15.8148 7.687C15.5666 7.89528 15.5345 8.2647 15.7432 8.51235C16.0569 8.88474 16.4259 9.14429 16.8169 9.27521V9.95888C16.8169 10.2825 17.0797 10.5446 17.4038 10.5446C17.7278 10.5446 17.9906 10.2825 17.9906 9.95888V9.27246C18.6738 9.03054 19.1646 8.37937 19.1646 7.61582C19.1646 6.64673 18.3748 5.85846 17.4038 5.85846C17.0802 5.85846 16.8169 5.59571 16.8169 5.27275C16.8169 4.9498 17.0802 4.68681 17.4038 4.68681C17.6118 4.68681 17.8313 4.79279 18.0386 4.99306C18.2716 5.21805 18.6431 5.21187 18.8685 4.97955C19.0939 4.74701 19.0878 4.37622 18.855 4.15123C18.5571 3.86353 18.259 3.70079 17.9906 3.61198V2.92969C17.9906 2.60605 17.7278 2.34375 17.4038 2.34375C17.0797 2.34375 16.8169 2.60605 16.8169 2.92969V2.92969Z" fill="#222222"/>
</g>
<defs>
<clipPath id="clip0">
<rect width="30" height="30" fill="white"/>
</clipPath>
</defs>
</svg>
