<svg width="25" height="28" viewBox="0 0 25 28" fill="none" xmlns="http://www.w3.org/2000/svg">
<path d="M23.9902 1.88906C23.7517 1.72888 23.447 1.69754 23.1789 1.80375C23.1197 1.82813 17.3829 4.09848 12.5601 1.82464C8.41982 -0.13058 3.85996 0.783482 1.74107 1.40156V0.870536C1.74107 0.39 1.35107 0 0.870536 0C0.39 0 0 0.39 0 0.870536V26.9866C0 27.4671 0.39 27.8571 0.870536 27.8571C1.35107 27.8571 1.74107 27.4671 1.74107 26.9866V17.1548C3.28366 16.6516 7.85571 15.4555 11.8167 17.3271C13.6988 18.2168 15.6679 18.5128 17.456 18.5128C20.8946 18.5128 23.6594 17.4177 23.8318 17.348C24.1591 17.214 24.375 16.8954 24.375 16.5402V2.61161C24.375 2.32259 24.2305 2.05272 23.9902 1.88906ZM22.6339 15.9238C21.0826 16.427 16.5123 17.6179 12.5583 15.7515C8.41982 13.798 3.85996 14.7121 1.74107 15.3301V3.22795C3.28366 2.72478 7.85571 1.52866 11.8167 3.40031C15.9517 5.35205 20.515 4.43973 22.6339 3.81991V15.9238Z" fill="#222222"/>
</svg>
