<svg width="20" height="20" fill="none" xmlns="http://www.w3.org/2000/svg"><path d="M19.707 5.919l-2.5-2.5a.469.469 0 00-.8.331v.781h-.937V1.875A1.72 1.72 0 0013.75.156h-7.5a1.72 1.72 0 00-1.719 1.719v10.156h-.937v-.781a.469.469 0 00-.8-.331l-2.5 2.5a.469.469 0 000 .662l2.5 2.5c.278.297.813.074.8-.331v-.781h.937v2.656a1.72 1.72 0 001.719 1.719h7.5a1.721 1.721 0 001.719-1.719V7.969h.937v.781c-.013.405.522.628.8.331l2.5-2.5a.469.469 0 000-.662zM6.251 1.094h7.5a.782.782 0 01.781.781v.781H5.47v-.781a.782.782 0 01.78-.781zm7.5 17.812h-7.5a.782.782 0 01-.781-.781v-.781h9.062v.781a.782.782 0 01-.781.781zm3.594-11.288V7.5a.469.469 0 00-.469-.469h-3.75a.469.469 0 100 .938h1.406v8.437H5.47v-.937h1.406a.469.469 0 000-.938h-3.75a.469.469 0 00-.469.469v.118L1.29 13.75l1.368-1.368v.118a.469.469 0 00.469.469h3.75a.469.469 0 000-.938H5.47V3.594h9.062v.937h-1.406a.469.469 0 100 .938h3.75A.469.469 0 0017.345 5v-.118l1.368 1.368-1.368 1.368z" fill="#2B8EB5"/><path d="M9.375 7.969h1.563a.47.47 0 01.468.468.469.469 0 00.938 0 1.408 1.408 0 00-1.406-1.406h-.47V6.25a.469.469 0 00-.937 0v.781h-.156a1.719 1.719 0 100 3.438h1.25a.781.781 0 110 1.562H9.062a.469.469 0 01-.468-.469.47.47 0 00-.938 0 1.408 1.408 0 001.407 1.407h.468v.781a.47.47 0 00.938 0v-.781h.156a1.718 1.718 0 000-3.438h-1.25a.781.781 0 010-1.562z" fill="#2B8EB5"/></svg>