<svg width="20" height="20" viewBox="0 0 20 20" fill="none" xmlns="http://www.w3.org/2000/svg">
<g clip-path="url(#clip0)">
<path d="M16.6667 10.0013C15.75 10.0013 15 9.2513 15 8.33463C15 7.41797 15.75 6.66797 16.6667 6.66797C17.5833 6.66797 18.3333 7.41797 18.3333 8.33463C18.3333 9.2513 17.5833 10.0013 16.6667 10.0013ZM16.6667 7.5013C16.1667 7.5013 15.8333 7.83463 15.8333 8.33463C15.8333 8.83463 16.1667 9.16797 16.6667 9.16797C17.1667 9.16797 17.5 8.83463 17.5 8.33463C17.5 7.83463 17.1667 7.5013 16.6667 7.5013Z" fill="#4B5456"/>
<path d="M19.5833 14.1654C19.3333 14.1654 19.1667 13.9987 19.1667 13.7487V12.9154C19.1667 12.2487 18.5833 11.6654 17.9167 11.6654H15.4167C15.1667 11.6654 15 11.4987 15 11.2487C15 10.9987 15.1667 10.832 15.4167 10.832H17.9167C19.0833 10.832 20 11.7487 20 12.9154V13.7487C20 13.9987 19.8333 14.1654 19.5833 14.1654Z" fill="#4B5456"/>
<path d="M3.33463 10.0013C2.41797 10.0013 1.66797 9.2513 1.66797 8.33463C1.66797 7.41797 2.41797 6.66797 3.33463 6.66797C4.2513 6.66797 5.0013 7.41797 5.0013 8.33463C5.0013 9.2513 4.2513 10.0013 3.33463 10.0013ZM3.33463 7.5013C2.83463 7.5013 2.5013 7.83463 2.5013 8.33463C2.5013 8.83463 2.83463 9.16797 3.33463 9.16797C3.83463 9.16797 4.16797 8.83463 4.16797 8.33463C4.16797 7.83463 3.83463 7.5013 3.33463 7.5013Z" fill="#4B5456"/>
<path d="M0.416667 14.1654C0.166667 14.1654 0 13.9987 0 13.7487V12.9154C0 11.7487 0.916667 10.832 2.08333 10.832H4.58333C4.83333 10.832 5 10.9987 5 11.2487C5 11.4987 4.83333 11.6654 4.58333 11.6654H2.08333C1.41667 11.6654 0.833333 12.2487 0.833333 12.9154V13.7487C0.833333 13.9987 0.666667 14.1654 0.416667 14.1654Z" fill="#4B5456"/>
<path d="M10 10.418C8.58333 10.418 7.5 9.33464 7.5 7.91797C7.5 6.5013 8.58333 5.41797 10 5.41797C11.4167 5.41797 12.5 6.5013 12.5 7.91797C12.5 9.33464 11.4167 10.418 10 10.418ZM10 6.2513C9.08333 6.2513 8.33333 7.0013 8.33333 7.91797C8.33333 8.83464 9.08333 9.58464 10 9.58464C10.9167 9.58464 11.6667 8.83464 11.6667 7.91797C11.6667 7.0013 10.9167 6.2513 10 6.2513Z" fill="#4B5456"/>
<path d="M14.168 15.8346C13.918 15.8346 13.7513 15.668 13.7513 15.418V13.7513C13.7513 13.0846 13.168 12.5013 12.5013 12.5013H7.5013C6.83463 12.5013 6.2513 13.0846 6.2513 13.7513V15.418C6.2513 15.668 6.08464 15.8346 5.83464 15.8346C5.58464 15.8346 5.41797 15.668 5.41797 15.418V13.7513C5.41797 12.5846 6.33464 11.668 7.5013 11.668H12.5013C13.668 11.668 14.5846 12.5846 14.5846 13.7513V15.418C14.5846 15.668 14.418 15.8346 14.168 15.8346Z" fill="#4B5456"/>
</g>
<defs>
<clipPath id="clip0">
<rect width="20" height="20" fill="white"/>
</clipPath>
</defs>
</svg>
