<svg width="28" height="28" viewBox="0 0 28 28" fill="none" xmlns="http://www.w3.org/2000/svg">
<path d="M10.0625 6.09961C9.82056 6.09961 9.625 6.29517 9.625 6.53711V13.9995C9.625 14.2414 9.82056 14.437 10.0625 14.437C10.3044 14.437 10.5 14.2414 10.5 13.9995V6.53711C10.5 6.29517 10.3044 6.09961 10.0625 6.09961Z" fill="#222222"/>
<path d="M22.3125 6.07422C22.0706 6.07422 21.875 6.26978 21.875 6.51171V14.0003C21.875 14.2423 22.0706 14.4378 22.3125 14.4378C22.5544 14.4378 22.75 14.2423 22.75 14.0003V6.51171C22.75 6.26978 22.5544 6.07422 22.3125 6.07422Z" fill="#222222"/>
<path d="M16.5453 0.184723C16.4053 -0.0121504 16.1331 -0.0589624 15.935 0.0797237L8.49753 5.32967C8.30022 5.46967 8.25341 5.74223 8.39254 5.93998C8.47785 6.06073 8.61303 6.12504 8.75041 6.12504C8.83747 6.12504 8.92541 6.09879 9.00284 6.04498L16.4403 0.795029C16.6376 0.655031 16.6844 0.382471 16.5453 0.184723Z" fill="#222222"/>
<path d="M23.878 5.32986L16.4405 0.0799144C16.2419 -0.0592092 15.9698 -0.0119597 15.8302 0.184913C15.6907 0.383099 15.7379 0.655659 15.9352 0.79522L23.3726 6.04517C23.4496 6.09898 23.5376 6.12523 23.6246 6.12523C23.762 6.12523 23.8972 6.06092 23.983 5.94017C24.1225 5.74198 24.0753 5.46942 23.878 5.32986Z" fill="#222222"/>
<path d="M16.5453 1.9346C16.4053 1.73817 16.1331 1.69092 15.935 1.8296L8.49753 7.07956C8.30022 7.21956 8.25341 7.49212 8.39254 7.68987C8.47785 7.81062 8.61303 7.87493 8.75041 7.87493C8.83747 7.87493 8.92541 7.84868 9.00284 7.79487L16.4403 2.54491C16.6376 2.40491 16.6844 2.13235 16.5453 1.9346Z" fill="#222222"/>
<path d="M23.878 7.07975L16.4405 1.82979C16.2419 1.69067 15.9698 1.73836 15.8302 1.93479C15.6907 2.13298 15.7379 2.40554 15.9352 2.5451L23.3726 7.79506C23.4496 7.84887 23.5376 7.87512 23.6246 7.87512C23.762 7.87512 23.8972 7.81081 23.983 7.69006C24.1225 7.49187 24.0753 7.21931 23.878 7.07975Z" fill="#222222"/>
<path d="M8.75 5.25C8.50806 5.25 8.3125 5.44556 8.3125 5.6875V7.43749C8.3125 7.67942 8.50806 7.87498 8.75 7.87498C8.99193 7.87498 9.18749 7.67942 9.18749 7.43749V5.6875C9.18749 5.44556 8.99193 5.25 8.75 5.25Z" fill="#222222"/>
<path d="M17.9375 7.875H14.4375C14.1956 7.875 14 8.07056 14 8.3125V13.9999C14 14.2419 14.1956 14.4374 14.4375 14.4374H17.9375C18.1794 14.4374 18.375 14.2419 18.375 13.9999V8.3125C18.375 8.07056 18.1794 7.875 17.9375 7.875ZM17.5 13.5624H14.875V8.74999H17.5V13.5624Z" fill="#222222"/>
<path d="M22.3124 13.5625H10.0625C9.82056 13.5625 9.625 13.7581 9.625 14C9.625 14.2419 9.82056 14.4375 10.0625 14.4375H22.3124C22.5543 14.4375 22.7499 14.2419 22.7499 14C22.7499 13.7581 22.5543 13.5625 22.3124 13.5625Z" fill="#222222"/>
<path d="M2.6389 25.375H2.63409C2.39259 25.375 2.19922 25.5706 2.19922 25.8125C2.19922 26.0544 2.39697 26.25 2.6389 26.25C2.8804 26.25 3.0764 26.0544 3.0764 25.8125C3.0764 25.5706 2.8804 25.375 2.6389 25.375Z" fill="#222222"/>
<path d="M25.8125 17.5C25.5706 17.5 25.375 17.6956 25.375 17.9375C25.375 18.1794 25.5706 18.375 25.8125 18.375C26.5361 18.375 27.125 18.9639 27.125 19.6875C27.125 20.1552 26.8739 20.5909 26.4687 20.825C26.2601 20.9457 26.1883 21.213 26.3095 21.4226C26.39 21.5626 26.537 21.6409 26.6884 21.6409C26.7627 21.6409 26.838 21.6221 26.9071 21.5818C27.5813 21.192 28 20.4658 28 19.6875C28 18.4813 27.0187 17.5 25.8125 17.5Z" fill="#222222"/>
<path d="M27.0726 20.9961C26.958 20.783 26.692 20.7034 26.4803 20.818L14.6679 27.1775C14.4553 27.2916 14.3752 27.5572 14.4898 27.7698C14.569 27.9168 14.7199 27.9999 14.8757 27.9999C14.9457 27.9999 15.0166 27.9833 15.0822 27.9479L26.8946 21.5885C27.1072 21.4743 27.1873 21.2087 27.0726 20.9961Z" fill="#222222"/>
<path d="M14.9312 27.1293L4.86886 25.8168C4.6278 25.7827 4.40993 25.9542 4.37887 26.1939C4.34693 26.4333 4.51624 26.6529 4.75599 26.6839L14.8184 27.9964C14.8376 27.999 14.8564 28.0003 14.8752 28.0003C15.0918 28.0003 15.2799 27.8398 15.3084 27.6193C15.3403 27.38 15.171 27.1604 14.9312 27.1293Z" fill="#222222"/>
<path d="M4.81245 14.875H0.437496C0.195561 14.875 0 15.0706 0 15.3125V27.1249C0 27.3668 0.195561 27.5624 0.437496 27.5624H4.81245C5.05439 27.5624 5.24995 27.3668 5.24995 27.1249V15.3125C5.24995 15.0706 5.05439 14.875 4.81245 14.875ZM4.37496 26.6874H0.874991V15.75H4.37496V26.6874Z" fill="#222222"/>
<path d="M25.9461 17.899C25.9102 17.6601 25.6862 17.4961 25.4478 17.5324L16.9967 18.8186C16.7578 18.8549 16.5937 19.0781 16.63 19.3169C16.6628 19.5339 16.8492 19.6888 17.0618 19.6888C17.0837 19.6888 17.106 19.6871 17.1283 19.6836L25.5795 18.3973C25.8183 18.361 25.9824 18.1379 25.9461 17.899Z" fill="#222222"/>
<path d="M15.6874 17.096C15.4507 17.0562 15.2232 17.2145 15.1821 17.4525C15.141 17.6905 15.3007 17.9167 15.5387 17.9578C16.1682 18.0663 16.625 18.6101 16.625 19.2506C16.625 19.9742 16.0361 20.5631 15.3125 20.5631C15.0706 20.5631 14.875 20.7587 14.875 21.0006C14.875 21.2425 15.0706 21.4381 15.3125 21.4381C16.5187 21.4381 17.5 20.4568 17.5 19.2506C17.5 18.1831 16.7379 17.2762 15.6874 17.096Z" fill="#222222"/>
<path d="M15.6973 17.0972L8.83389 15.7585C8.59633 15.7112 8.36708 15.867 8.32071 16.1041C8.27433 16.3412 8.42921 16.5713 8.66633 16.6173L15.5298 17.956C15.5578 17.9617 15.5862 17.9643 15.6138 17.9643C15.8189 17.9643 16.0023 17.8195 16.0429 17.6104C16.0893 17.3733 15.9344 17.1431 15.6973 17.0972Z" fill="#222222"/>
<path d="M8.74995 15.75H4.81249C4.57056 15.75 4.375 15.9456 4.375 16.1875C4.375 16.4294 4.57056 16.625 4.81249 16.625H8.74995C8.99188 16.625 9.18745 16.4294 9.18745 16.1875C9.18745 15.9456 8.99188 15.75 8.74995 15.75Z" fill="#222222"/>
<path d="M15.162 20.5545L9.65872 20.1266C9.41766 20.106 9.20766 20.2876 9.18885 20.5291C9.17004 20.7701 9.35028 20.9801 9.59135 20.9989L15.0946 21.4268C15.106 21.4277 15.1174 21.4281 15.1287 21.4281C15.3554 21.4281 15.5465 21.2536 15.5645 21.0243C15.5833 20.7833 15.403 20.5733 15.162 20.5545Z" fill="#222222"/>
</svg>
