<svg width="29" height="21" viewBox="0 0 29 21" fill="none" xmlns="http://www.w3.org/2000/svg">
<path d="M28.9192 11.0366C28.7691 10.3266 28.0014 9.75518 26.6103 9.3338C25.4443 8.98169 23.9781 8.77388 22.3619 8.73925L22.206 2.17038C21.9924 1.52389 21.2247 0.998607 19.926 0.606091C18.6272 0.213575 16.9359 0 15.1523 0C13.3744 0 11.6947 0.213575 10.4248 0.606091C9.37998 0.929339 8.12739 1.52966 8.12739 2.5629C8.12739 2.62639 8.13316 2.68989 8.14471 2.75338L8.2082 5.38555C7.78105 5.30474 7.34813 5.26433 6.90943 5.26433C3.09972 5.26433 0 8.36405 0 12.1738C0 15.9893 3.08818 19.0832 6.90366 19.0832C8.49104 19.0832 10.0322 18.5348 11.2617 17.5362C12.3469 17.7902 13.6226 17.9287 14.9733 17.9403C15.2677 19.5392 18.7369 20.2723 21.9693 20.2723C23.7472 20.2723 25.4212 20.0529 26.7026 19.6604C27.759 19.3372 29 18.7311 29 17.6978L28.9192 11.0366ZM10.748 1.71437C11.914 1.35649 13.4783 1.15446 15.1407 1.15446C16.7858 1.15446 18.4078 1.35649 19.5854 1.71437C20.8437 2.09534 21.115 2.48786 21.115 2.56867C21.115 2.64948 20.8437 3.042 19.5854 3.42297C18.4136 3.77508 16.7916 3.98288 15.1465 3.98288C13.5533 3.98288 12.041 3.79817 10.8923 3.46338C9.65127 3.10549 9.29916 2.70721 9.2703 2.58022C9.2703 2.57444 9.26453 2.56867 9.25876 2.5629C9.25876 2.44168 9.6455 2.05494 10.748 1.71437ZM21.2074 3.99443V5.4375C21.1439 5.53563 21.115 5.6453 21.115 5.76075C21.115 5.83579 20.8437 6.23408 19.5912 6.61505C18.4194 6.97293 16.7974 7.17496 15.1523 7.17496C13.7265 7.17496 12.3296 7.02488 11.2213 6.74204C11.204 6.73627 11.1867 6.73627 11.1752 6.73049C10.6326 6.29757 10.0207 5.95123 9.3742 5.7088L9.3338 4.08101C9.73209 4.28304 10.1477 4.44467 10.5806 4.56011C11.8332 4.92377 13.4552 5.12002 15.158 5.12002C16.9417 5.12002 18.633 4.90645 19.926 4.51393C20.3647 4.39849 20.7976 4.21955 21.2074 3.99443ZM10.7769 16.4279C8.42755 18.5695 4.78523 18.3963 2.64948 16.047C0.513734 13.6977 0.681131 10.0553 3.03045 7.91959C4.09256 6.95561 5.47213 6.41879 6.90366 6.41879C7.48089 6.41879 8.05235 6.50537 8.60649 6.67277C9.35689 6.90366 10.0553 7.2904 10.6499 7.80991C11.6196 8.63535 12.2834 9.76672 12.5432 11.0135C12.6182 11.3945 12.6586 11.787 12.6586 12.1738C12.6644 13.7958 11.9775 15.3428 10.7769 16.4279ZM12.243 16.5549C12.7106 15.9835 13.0858 15.3428 13.3513 14.6559C13.8477 14.6963 14.3672 14.7251 14.9041 14.7309C14.8925 14.8002 14.8925 14.8637 14.9041 14.9329L14.9272 16.7916C14.0324 16.7801 13.1377 16.705 12.243 16.5549ZM13.7842 11.4869C14.1248 11.51 14.4769 11.5215 14.8406 11.5273C14.8463 11.5677 14.8579 11.6081 14.8694 11.6485L14.8925 13.5707C14.4769 13.5649 14.0671 13.5476 13.6803 13.5187C13.7669 13.0742 13.8131 12.6182 13.8131 12.168C13.8131 11.9429 13.8016 11.7178 13.7842 11.4869ZM15.1927 10.3786C15.1754 10.3786 15.1638 10.3786 15.1465 10.3786C14.5866 10.3786 14.0555 10.3555 13.5591 10.3151C13.3455 9.54737 12.9934 8.82006 12.5316 8.16779C13.3975 8.27747 14.2749 8.33519 15.1465 8.33519C16.9301 8.33519 18.6214 8.12162 19.9144 7.7291C20.3646 7.60211 20.7918 7.42317 21.2016 7.19805V8.73925C19.7586 8.77966 18.4021 8.96437 17.3227 9.2703C16.3067 9.55892 15.5967 9.92834 15.1927 10.3786ZM15.9893 11.2387C16.0874 11.0597 16.5203 10.7076 17.6459 10.3959C18.7773 10.0784 20.2492 9.90525 21.7962 9.90525H21.8424C23.4932 9.90525 25.1095 10.0957 26.2812 10.4536C27.4934 10.823 27.7878 11.1925 27.8051 11.2906V11.2964C27.7994 11.383 27.5165 11.7812 26.2351 12.1622C25.0518 12.5143 23.4875 12.7048 21.8424 12.7048C20.3127 12.7048 18.8408 12.5316 17.7094 12.2257C16.6242 11.9313 16.1566 11.5908 16.0181 11.3945C16.0181 11.3426 16.0066 11.2906 15.9893 11.2387ZM27.8455 17.6921C27.8455 17.7729 27.5916 18.1712 26.3621 18.5521C25.1845 18.9158 23.626 19.1178 21.9636 19.1178C20.2954 19.1178 18.7426 18.9216 17.5824 18.5695C16.4799 18.2289 16.1105 17.8479 16.1105 17.7209C16.1105 17.7152 16.1105 17.7152 16.1105 17.7094L16.1047 17.3573L16.0874 16.0527C16.5492 16.2779 17.0283 16.451 17.5247 16.5723C18.7369 16.8897 20.2665 17.0629 21.8424 17.0629C23.626 17.0629 25.3 16.8493 26.593 16.4568C27.0143 16.3298 27.4992 16.1566 27.8455 15.9315V17.6921ZM27.7705 14.4942C27.7705 14.575 27.505 14.9676 26.2639 15.3485C25.0806 15.7064 23.5105 15.9027 21.8366 15.9027C18.6965 15.9027 16.5607 15.2042 16.0643 14.6501L16.0412 12.826C17.4035 13.536 19.6951 13.8593 21.8424 13.8593C23.5971 13.8593 25.2653 13.6515 26.5525 13.2705C27.0028 13.1435 27.4357 12.9703 27.8513 12.7452V14.1883C27.8455 14.2749 27.7705 14.3788 27.7705 14.4942Z" fill="#222222"/>
<path d="M6.91127 8.35938C4.80439 8.35938 3.10156 10.068 3.10156 12.1691C3.10156 14.2702 4.81016 15.9788 6.91127 15.9788C9.01239 15.9788 10.721 14.2702 10.721 12.1691C10.7152 10.068 9.01239 8.36515 6.91127 8.35938ZM6.91127 14.8301C5.44511 14.8301 4.25602 13.641 4.25602 12.1749C4.25602 10.7087 5.44511 9.51961 6.91127 9.51961C8.37744 9.51961 9.56653 10.7087 9.56653 12.1749C9.56653 13.641 8.37744 14.8301 6.91127 14.8301Z" fill="#222222"/>
</svg>
