<svg width="28" height="23" viewBox="0 0 28 23" fill="none" xmlns="http://www.w3.org/2000/svg">
<path d="M26.0329 6.75752H23.4031L22.665 1.18803C22.5593 0.440257 21.8726 -0.0840241 21.1234 0.0111545L1.19055 2.65284C0.829315 2.70129 0.502189 2.89153 0.281496 3.18164C0.0598313 3.4698 -0.0369469 3.83481 0.0127562 4.1949L1.69466 16.8791C1.78401 17.5622 2.36634 18.073 3.05527 18.0725C3.11429 18.0723 3.17319 18.0683 3.23169 18.0606L4.55208 17.8864V20.9258C4.55208 21.683 5.16594 22.2969 5.9232 22.2969H26.0329C26.7902 22.2969 27.4041 21.683 27.4041 20.9258V8.12864C27.4041 7.37138 26.7902 6.75752 26.0329 6.75752ZM22.4813 6.75752H18.9123L22.4196 6.29271L22.4813 6.75752ZM0.917695 4.0715C0.901642 3.95221 0.934206 3.83144 1.00819 3.73649C1.08172 3.63874 1.19135 3.57452 1.31258 3.55824L21.2418 0.917464C21.4924 0.8857 21.7223 1.06052 21.7587 1.31052L21.9392 2.67158L1.09823 5.4353L0.917695 4.0715ZM4.55208 16.9646L3.11423 17.1543C2.864 17.1875 2.63422 17.0116 2.60097 16.7614C2.60097 16.7614 2.60097 16.7613 2.60097 16.7614L1.58132 9.05643L4.55208 8.66383V16.9646ZM4.6124 7.73421L1.45883 8.15012L1.21888 6.34207L22.0599 3.57789L22.197 4.62543L22.2985 5.3864L11.9561 6.75752H5.9232C5.31876 6.75861 4.78631 7.15532 4.6124 7.73421ZM26.49 20.9258C26.49 21.1782 26.2853 21.3828 26.0329 21.3828H5.9232C5.6708 21.3828 5.46616 21.1782 5.46616 20.9258V8.14235C5.46616 8.13778 5.46844 8.13321 5.46844 8.12864C5.46844 7.87624 5.67308 7.6716 5.92548 7.6716H26.0329C26.2853 7.6716 26.49 7.87624 26.49 8.12864V20.9258Z" fill="#222222"/>
<path d="M20.0667 13.6236C20.2504 13.4879 20.4128 13.3256 20.5484 13.1418C21.2998 14.1533 22.729 14.3641 23.7405 13.6127C24.752 12.8612 24.9628 11.4321 24.2113 10.4206C23.7801 9.84025 23.0995 9.49861 22.3766 9.49964C21.6544 9.50164 20.9761 9.84607 20.5484 10.4279C19.799 9.4124 18.3683 9.19673 17.3527 9.94617C16.3372 10.6956 16.1216 12.1263 16.871 13.1418C17.6204 14.1573 19.0512 14.373 20.0667 13.6236ZM22.3766 10.4137C23.1338 10.4137 23.7477 11.0276 23.7477 11.7848C23.7477 12.5421 23.1338 13.156 22.3766 13.156C21.6193 13.156 21.0054 12.5421 21.0054 11.7848C21.0054 11.0276 21.6193 10.4137 22.3766 10.4137ZM18.7202 10.4137C19.4775 10.4137 20.0914 11.0276 20.0914 11.7848C20.0914 12.5421 19.4775 13.156 18.7202 13.156C17.963 13.156 17.3491 12.5421 17.3491 11.7848C17.3491 11.0276 17.963 10.4137 18.7202 10.4137Z" fill="#222222"/>
<path d="M8.20805 9.95722H7.29397V10.8713H8.20805V9.95722Z" fill="#222222"/>
<path d="M14.6075 9.95722H9.12299V10.8713H14.6075V9.95722Z" fill="#222222"/>
<path d="M14.6066 11.7844H7.29397V12.6985H14.6066V11.7844Z" fill="#222222"/>
<path d="M24.2044 15.8983H7.75101C7.49861 15.8983 7.29397 16.103 7.29397 16.3554V19.0976C7.29397 19.35 7.49861 19.5547 7.75101 19.5547H24.2044C24.4568 19.5547 24.6615 19.35 24.6615 19.0976V16.3554C24.6615 16.103 24.4569 15.8983 24.2044 15.8983ZM23.7474 18.6406H8.20805V16.8124H23.7474V18.6406Z" fill="#222222"/>
</svg>
